<!--?xml version="1.0" encoding="UTF-8" standalone="no"?-->
<!--?xml version="1.0"?-->

<svg version="1.2" width="100%" height="100%" viewBox="0 0 800 416" stroke-linecap="round" stroke-linejoin="round" id="svg1" sodipodi:docname="azuer_ii_inverters.svg" inkscape:version="1.3.2 (091e20e, 2023-11-25, custom)" xmlns:inkscape="http://www.inkscape.org/namespaces/inkscape" xmlns:sodipodi="http://sodipodi.sourceforge.net/DTD/sodipodi-0.dtd" xmlns="http://www.w3.org/2000/svg" xmlns:svg="http://www.w3.org/2000/svg">
  <defs id="defs1"></defs>
  <sodipodi:namedview id="namedview1" pagecolor="#ffffff" bordercolor="#000000" borderopacity="0.25" inkscape:showpageshadow="2" inkscape:pageopacity="0.0" inkscape:pagecheckerboard="0" inkscape:deskcolor="#d1d1d1" inkscape:zoom="1.76125" inkscape:cx="341.8027" inkscape:cy="208.09084" inkscape:window-width="1920" inkscape:window-height="1009" inkscape:window-x="-8" inkscape:window-y="-8" inkscape:window-maximized="1" inkscape:current-layer="svg1"></sodipodi:namedview>
  <path d="m 104.71,3.06 0.75,107.68 15.76,-0.12 0.17,24.72 15.76,-0.07 0.17,24.67 7.88,-0.03 0.34,48.97 L 16.58,209.42 15.32,28.11 23.19,28.08 23.02,3.41 Z" id="AZ2-1A" class="area" title="AZ2-1A" style="stroke:#000000;stroke-opacity:1;fill:#000000;fill-opacity:0.30000001"></path>
  <path d="m 109.7,3.04 136.84,-0.58 0.68,98.31 -15.75,0.06 0.06,9.37 0.68,98.31 -81.68,0.34 -0.35,-49.34 -7.88,0.04 -0.17,-24.3 -0.23,-34.04 -31.52,0.14 z" id="AZ2-1B" class="area" title="AZ2-1B" style="stroke:#000000;stroke-opacity:1;fill:#000000;fill-opacity:0.30000001"></path>
  <path d="m 341.09,2.06 0.75,107.67 15.76,-0.06 0.68,98.31 -121.08,0.51 -0.69,-98.31 15.76,-0.07 -0.06,-9.36 -0.68,-98.31 z" id="AZ2-2A" class="area" title="AZ2-2A" style="stroke:#000000;stroke-opacity:1;fill:#000000;fill-opacity:0.30000001"></path>
  <path d="m 362.75,134.32 47.28,-0.2 -0.24,-34.04 -63.03,0.27 -0.68,-98.31 121.09,-0.51 1.41,205.98 -105.32,0.44 z" id="AZ2-2B" class="area" title="AZ2-2B" style="stroke:#000000;stroke-opacity:1;fill:#000000;fill-opacity:0.30000001"></path>
  <path d="m 577.48,1.07 1.41,205.98 -105.32,0.44 -1.42,-205.98 z" id="AZ2-3A" class="area" title="AZ2-3A" style="stroke:#000000;stroke-opacity:1;fill:#000000;fill-opacity:0.30000001"></path>
  <path d="M 791.29,156.82 583.54,157.69 583.2,108.72 582.46,1.05 593.24,1 l 0.33,49.34 204.87,-0.85 0.56,82.63 -7.88,0.03 z" id="AZ2-3B" class="area" title="AZ2-3B" style="stroke:#000000;stroke-opacity:1;fill:#000000;fill-opacity:0.30000001"></path>
  <path d="m 161.3,209.18 0.52,73.64 -15.76,0.07 0.23,33.55 0.69,98.31 L 88.93,415 88.18,307.81 1.52,308.18 1,234.54 8.88,234.51 8.71,209.83 Z" id="AZ2-4A" class="area" title="AZ2-4A" style="stroke:#000000;stroke-opacity:1;fill:#000000;fill-opacity:0.30000001"></path>
  <path d="m 174.17,209.13 89.56,-0.38 0.74,107.19 7.88,-0.03 0.68,98.31 -121.07,0.51 -0.68,-98.31 23.63,-0.1 z" id="AZ2-4B" class="area" title="AZ2-4B" style="stroke:#000000;stroke-opacity:1;fill:#000000;fill-opacity:0.30000001"></path>
  <path d="m 397.67,208.19 0.51,73.63 -31.51,0.14 0.17,24.67 0.74,107.19 -89.56,0.38 -0.75,-107.2 -7.87,0.04 -0.69,-98.31 z" id="AZ2-5A" class="area" title="AZ2-5A" style="stroke:#000000;stroke-opacity:1;fill:#000000;fill-opacity:0.30000001"></path>
  <path d="m 578.89,207.43 0.34,48.96 -23.47,24.77 -23.47,24.77 -54.92,33.41 -31.52,0.13 0.17,24.68 -31.51,0.13 0.17,24.67 -31.52,0.13 0.18,24.67 -10.78,0.05 -0.68,-98.31 39.4,-0.17 -0.74,-107.19 z" id="AZ2-5B" class="area active" title="AZ2-5B" style="stroke:#000000;stroke-opacity:1;fill:#000000;fill-opacity:0.30000001"></path>
</svg>
