<!--?xml version="1.0" encoding="UTF-8" standalone="no"?-->
<!--?xml version="1.0"?-->

<svg version="1.2" width="100%" height="100%" viewBox="0 0 800 302" stroke-linecap="round" stroke-linejoin="round" id="svg1" sodipodi:docname="azuer_i_power_blocks.svg" inkscape:version="1.3.2 (091e20e, 2023-11-25, custom)" xml:space="preserve" xmlns:inkscape="http://www.inkscape.org/namespaces/inkscape" xmlns:sodipodi="http://sodipodi.sourceforge.net/DTD/sodipodi-0.dtd" xmlns="http://www.w3.org/2000/svg" xmlns:svg="http://www.w3.org/2000/svg"><defs id="defs1"></defs><sodipodi:namedview id="namedview1" pagecolor="#ffffff" bordercolor="#000000" borderopacity="0.25" inkscape:showpageshadow="2" inkscape:pageopacity="0.0" inkscape:pagecheckerboard="0" inkscape:deskcolor="#d1d1d1" inkscape:zoom="1.0823183" inkscape:cx="400.52913" inkscape:cy="151.06462" inkscape:window-width="1920" inkscape:window-height="1009" inkscape:window-x="1912" inkscape:window-y="-8" inkscape:window-maximized="1" inkscape:current-layer="svg1"></sodipodi:namedview><path d="m 341.37,130.42 -73.06,45.95 h -1.75 l -0.22,-32.08 -5.36,-0.01 -0.2,-29.79 -38.3,0.16 -0.11,-14.94 -47.93,0.2 -0.34,-49.86 8.08,-18.01 94,-28.85 73.59,-0.16 0.43,64 -9.26,0.04 z" id="AZ1-1" class="area" title="AZ1-1" style="stroke:#000000;stroke-opacity:1;fill:#000000;fill-opacity:0.30000001"></path><path d="m 478.19,2.3 0.44,66.01 4.34,-0.01 0.41,61.53 -141.28,0.58 -0.42,-62.16 9.3,-0.04 -0.44,-65.19 z" id="AZ1-2" class="area" title="AZ1-2" style="stroke:#000000;stroke-opacity:1;fill:#000000;fill-opacity:0.30000001"></path><path d="m 611.36,1.76 0.44,66.04 4.51,-0.02 0.41,61.51 -132.67,0.54 -0.42,-62.34 -4.47,0.02 -0.44,-65.21 z" id="AZ1-3" class="area" title="AZ1-3" style="stroke:#000000;stroke-opacity:1;fill:#000000;fill-opacity:0.30000001"></path><path d="m 798.68,1 0.32,48.5 -9.01,0.04 0.09,14.63 -87,0.35 0.23,35.31 -3.19,0.01 0.19,29.11 -82.94,0.34 -0.42,-63.32 -4.47,0.02 -0.43,-64.24 z" id="AZ1-4" class="area" title="AZ1-4" style="stroke:#000000;stroke-opacity:1;fill:#000000;fill-opacity:0.30000001"></path><path d="m 184.69,193.36 85.93,-0.36 0.41,60.29 22.96,-0.1 0.21,32.11 -76,0.32 0.1,14.62 v 0.38 l -91.19,0.38 -0.23,-14.07 -36.98,0.16 -0.22,-31.55 18.94,-0.08 -0.22,-31.26 5.41,-0.03 -0.21,-30.33 65.57,-0.27 0.11,15.43 5.55,-0.02 z" id="AZ1-6" class="area" title="AZ1-6" style="stroke:#000000;stroke-opacity:1;fill:#000000;fill-opacity:0.30000001"></path><path d="M 89.5,225.03 1.45,225.4 1,160.82 l 20.53,-0.09 -0.1,-14.48 24.02,-0.1 -0.12,-16.99 8.78,-0.04 0.32,17.29 42.72,-0.18 0.32,46.77 15.4,-0.06 0.21,31.16 -5.17,0.02 0.21,30.87 -18.42,0.07 z" id="AZ1-7" class="area" title="AZ1-7" style="fill:#000000;stroke:#000000;stroke-opacity:1;fill-opacity:0.30000001"></path><path d="m 268.72,191.57 -84.94,0.24 0.11,17.08 -3.64,0.02 -0.12,-17.08 -81.84,0.34 -0.3,-46.52 -42.12,0.22 -0.12,-16.76 13.15,-0.05 -0.12,-16.94 22.6,-0.1 -0.1,-14.44 23.41,-0.1 -0.09,-13.49 38.41,-0.16 -0.12,-16.22 20.11,-0.08 0.22,32.57 47.63,-0.2 0.11,14.94 38.34,-0.16 0.22,31.21 4.58,-0.02 0.21,30.66 4.31,-0.02 z" id="AZ1-5" class="area active" title="AZ1-5" style="stroke:#000000;stroke-opacity:1;fill:#000000;fill-opacity:0.30000001"></path></svg>
