<!--?xml version="1.0" encoding="UTF-8" standalone="no"?-->
<!--?xml version="1.0"?-->

<svg version="1.2" width="100%" height="100%" viewBox="0 0 800 302" stroke-linecap="round" stroke-linejoin="round" id="svg1" sodipodi:docname="azuer_i_inverters.svg" inkscape:version="1.3.2 (091e20e, 2023-11-25, custom)" xml:space="preserve" xmlns:inkscape="http://www.inkscape.org/namespaces/inkscape" xmlns:sodipodi="http://sodipodi.sourceforge.net/DTD/sodipodi-0.dtd" xmlns="http://www.w3.org/2000/svg" xmlns:svg="http://www.w3.org/2000/svg"><defs id="defs1"></defs><sodipodi:namedview id="namedview1" pagecolor="#ffffff" bordercolor="#000000" borderopacity="0.25" inkscape:showpageshadow="2" inkscape:pageopacity="0.0" inkscape:pagecheckerboard="0" inkscape:deskcolor="#d1d1d1" inkscape:zoom="1.76125" inkscape:cx="185.09581" inkscape:cy="185.3797" inkscape:window-width="1920" inkscape:window-height="1009" inkscape:window-x="-8" inkscape:window-y="-8" inkscape:window-maximized="1" inkscape:current-layer="svg1"></sodipodi:namedview><path d="m 614.49,1.74 44.97,-0.18 0.44,65.46 43.21,-0.17 0.2,29.8 -4.8,0.02 0.2,30.02 -78.58,0.32 -0.44,-65.46 -4.8,0.02 z" id="AZ1-4A" class="area" title="AZ1-4A" style="stroke:#000000;stroke-opacity:1;fill:#000000;fill-opacity:0.30000001"></path><path d="M 789.5,60.86 662.9,61.38 662.5,1.55 798.7,1 l 0.3,44.81 -9.6,0.04 z" id="AZ1-4B" class="area" title="AZ1-4B" style="stroke:#000000;stroke-opacity:1;fill:#000000;fill-opacity:0.30000001"></path><path d="m 556.87,1.98 54.58,-0.22 0.44,65.46 4.8,-0.02 0.4,59.82 -73.78,0.3 -0.41,-59.82 14.41,-0.06 -0.14,-20.65 z" id="AZ1-3B" class="area" title="AZ1-3B" style="stroke:#000000;stroke-opacity:1;fill:#000000;fill-opacity:0.30000001"></path><path d="m 412.83,2.57 64.18,-0.26 0.44,65.46 4.8,-0.02 0.41,59.82 -64.18,0.27 -0.31,-44.82 -4.94,-20.62 z" id="AZ1-2B" class="area" title="AZ1-2B" style="stroke:#000000;stroke-opacity:1;fill:#000000;fill-opacity:0.30000001"></path><path d="m 404.99,2.6 0.4,59.83 9.75,20.61 0.3,44.81 -73.78,0.3 -0.41,-59.82 9.6,-0.04 -0.04,-5.64 -0.4,-59.82 z" id="AZ1-2A" class="area" title="AZ1-2A" style="stroke:#000000;stroke-opacity:1;fill:#000000;fill-opacity:0.30000001"></path><path d="m 178.21,99.03 40.18,-0.17 0.1,15.02 38.41,-0.16 0.22,32.31 4.8,-0.02 0.21,30.02 4.8,-0.02 0.1,14.79 -86.42,0.36 0.12,17.29 -1.77,0.01 -0.11,-17.29 -33.61,0.14 -0.1,-14.79 4.8,-0.02 -0.21,-30.03 28.81,-0.12 z" id="AZ1-5B" class="area" title="AZ1-5B" style="fill:#000000;fill-opacity:0.30000001;stroke:#000000;stroke-opacity:1"></path><path d="m 170.17,69.04 0.51,74.84 -24,0.1 0.22,32.3 -4.8,0.02 0.1,15.02 -44.97,0.19 -0.31,-44.82 -0.02,-2.5 -43.21,0.18 -0.1,-14.79 14.4,-0.06 -0.1,-15.01 24,-0.1 v -0.23 L 91.79,99.39 115.8,99.29 115.69,84.28 154.1,84.12 154,69.11 Z" id="AZ1-5A" class="area" title="AZ1-5A" style="stroke:#000000;stroke-opacity:1;fill:#000000;fill-opacity:0.30000001"></path><path d="m 111.65,193.95 59.37,-0.24 0.11,15.01 12.64,-0.05 -0.11,-15.02 6.57,-0.02 0.31,44.81 -4.68,17.54 0.1,15.01 4.8,-0.02 0.2,29.8 -54.57,0.23 -0.1,-15.01 -38.41,0.16 -0.1,-15.02 -9.61,0.04 -0.1,-14.78 19.21,-0.08 -0.23,-32.31 4.8,-0.02 z" id="AZ1-6A" class="area" title="AZ1-6A" style="stroke:#000000;stroke-opacity:1;fill:#000000;fill-opacity:0.30000001"></path><path d="m 553.83,1.99 0.3,44.81 -9.6,0.04 0.1,15.02 -4.76,5.65 0.4,59.83 -54.58,0.22 -0.44,-65.46 -4.8,0.02 -0.4,-59.83 z" id="AZ1-3A" class="area" title="AZ1-3A" style="stroke:#000000;stroke-opacity:1;fill:#000000;fill-opacity:0.30000001"></path><path d="m 266.93,175.78 -1.77,0.01 -0.22,-32.31 -4.8,0.02 -0.21,-30.02 -38.41,0.16 -0.1,-15.02 -43.21,0.18 -0.24,-35.43 -4.8,0.02 -0.11,-14.78 9.61,-0.04 -0.11,-15.02 38.42,-0.16 -0.11,-15.01 54.58,-0.23 0.2,29.8 0.15,20.65 4.8,-0.02 0.2,29.8 h -1.76 l -3.04,0.02 0.2,30.02 -9.6,0.04 0.32,47.32 z" id="AZ1-1A" class="area" title="AZ1-1A" style="stroke:#000000;stroke-opacity:1;fill:#000000;fill-opacity:0.30000001"></path><path d="m 278.79,62.95 -0.4,-59.82 68.98,-0.29 0.41,59.83 -9.61,0.04 0.45,65.46 -59.38,0.24 -0.2,-29.8 4.8,-0.02 -0.2,-30.02 -0.04,-5.64 z" id="AZ1-1B" class="area" title="AZ1-1B" style="stroke:#000000;stroke-opacity:1;fill:#000000;fill-opacity:0.30000001"></path><path d="m 193.27,193.61 73.78,-0.3 0.42,62.33 24.01,-0.1 0.2,29.8 -76.81,0.32 0.1,15.01 -20.97,0.09 -0.21,-30.03 -4.8,0.02 -0.1,-14.78 4.79,-2.53 z" id="AZ1-6B" class="area" title="AZ1-6B" style="stroke:#000000;stroke-opacity:1;fill:#000000;fill-opacity:0.30000001"></path><path d="m 104.15,223.84 0.07,29.97 -16.16,0.07 -0.21,-29.8 v -0.23 l -86.42,0.37 -0.21,-29.8 9.6,-0.04 -0.12,-17.52 -9.6,0.04 -0.1,-14.79 19.2,-0.08 -0.1,-15.01 24.01,-0.1 -0.12,-17.3 6.56,-0.03 0.12,17.3 43.21,-0.18 0.33,47.32 14.4,-0.06 0.21,29.8 z" id="AZ1-7A" class="area active" title="AZ1-7A" style="fill:#000000;fill-opacity:0.30000001;stroke:#000000;stroke-opacity:1"></path></svg>
