<!--?xml version="1.0" encoding="UTF-8" standalone="no"?-->
<!--?xml version="1.0" encoding="UTF-8" standalone="no"?-->

<!--?xml version="1.0" encoding="UTF-8" standalone="no"?-->

<!--?xml version="1.0" encoding="UTF-8" standalone="no"?-->

<svg version="1.2" width="100%" height="100%" viewBox="0 0 800 317" stroke-linecap="round" stroke-linejoin="round" id="svg21" sodipodi:docname="bannerton_lvl_2.svg" inkscape:version="1.3.2 (091e20e, 2023-11-25, custom)" xmlns:inkscape="http://www.inkscape.org/namespaces/inkscape" xmlns:sodipodi="http://sodipodi.sourceforge.net/DTD/sodipodi-0.dtd" xmlns="http://www.w3.org/2000/svg" xmlns:svg="http://www.w3.org/2000/svg">
  <defs id="defs21"></defs>
  <sodipodi:namedview id="namedview21" pagecolor="#ffffff" bordercolor="#000000" borderopacity="0.25" inkscape:showpageshadow="2" inkscape:pageopacity="0.0" inkscape:pagecheckerboard="0" inkscape:deskcolor="#d1d1d1" inkscape:zoom="2.3325825" inkscape:cx="487.01386" inkscape:cy="157.5507" inkscape:window-width="1920" inkscape:window-height="1009" inkscape:window-x="-8" inkscape:window-y="-8" inkscape:window-maximized="1" inkscape:current-layer="svg21"></sodipodi:namedview>
  <path d="m 37.84,86.03 0.54,40.03 -9.61,-0.25 -0.81,-11.69 H 10.08 v -3.48 L 1.8,111.14 1,92.24 17.02,91.75 v -5.22 h 16.02 z" fill-opacity="0.301961" fill="#000000" stroke-opacity="1" stroke="#000000" stroke-width="1.2" id="INVERTER_B01.1" style="fill:#000000;fill-opacity:0.3019608" class="area" title="INVERTER B01.1" inkscape:label="B-B01.1"></path>
  <path id="INVERTER_A01.2" d="M 85.141707,109.76208 H 39.713972 l 0.25,20.05468 H 58.11241 l 0.800781,8.95117 4.009766,-0.25 v 4.97071 l 22.689453,0.25 z" style="fill:#000000;fill-opacity:0.30000001;stroke:#000000;stroke-opacity:1" class="area" title="INVERTER A01.2" inkscape:label="B-A01.2"></path>
  <path id="INVERTER_A01.1" d="m 84.813582,84.473888 -45.390625,0.5 0.291015,23.205082 h 45.427735 z" style="fill:#000000;fill-opacity:0.30000001;stroke:#000000;stroke-opacity:1" class="area" title="INVERTER A01.1" inkscape:label="B-A01.1"></path>
  <path id="INVERTER_A02.2" d="m 138.98828,158.25938 h -35.96289 l 3.16406,0.0801 v 8.94922 l 6.94141,0.25 1.06836,3.98047 h 20.56055 l 0.52929,11.92968 7.48047,-0.5 v 4.48047 h 17.08008 l -0.5293,-16.66015 h -20.01953 z" style="fill:#000000;fill-opacity:0.30000001;stroke:#000000;stroke-opacity:1" class="area" title="INVERTER A02.2" inkscape:label="B-A02.2"></path>
  <path id="INVERTER_A02.1" d="M 138.23047 127.30078 L 86.169922 128.53906 L 86.429688 157.13086 L 103.02539 157.55078 L 138.98828 157.55078 L 138.23047 127.30078 z " style="stroke:#000000;stroke-opacity:1;fill:#000000;fill-opacity:0.30000001" class="area" title="INVERTER A02.1" inkscape:label="B-A02.1"></path>
  <path id="INVERTER_A05.2" d="m 202.35621,129.44689 0.10547,16.64063 0.36328,6.30078 12.54883,-0.5 v 4.46875 l 30.16992,-0.73828 -0.53906,-26.85156 z" style="fill:#000000;fill-opacity:0.30000001;stroke:#000000;stroke-opacity:1" class="area" title="INVERTER A05.2" inkscape:label="B-A05.2"></path>
  <path id="INVERTER_A05.1" d="m 197.49768,113.57312 -32.0293,0.99023 0.25976,28.09961 h 35.7793 l 0.16797,2.90039 -0.10547,-16.64063 -3.80273,0.0606 z" style="stroke:#000000;stroke-opacity:1;fill:#000000;fill-opacity:0.30000001" class="area" title="INVERTER A05.1" inkscape:label="B-A05.1"></path>
  <path id="INVERTER_A04.2" d="M 241.20508 107.71875 L 186.30078 107.89648 L 186.30078 112.01172 L 199.38086 112.26172 L 199.12109 127.67188 L 241.57227 126.68164 L 241.20508 107.71875 z " style="stroke:#000000;stroke-opacity:1;fill:#000000;fill-opacity:0.30000001" class="area" title="INVERTER A04.2" inkscape:label="B-A04.2"></path>
  <path id="INVERTER_A04.1" d="m 240.77148,84.198373 -29.64062,0.25 v 14.169922 h -14.41992 v 3.228515 l -10.41016,0.25 v 4.58593 l 54.9043,-0.17773 z" style="fill:#000000;fill-opacity:0.30000001;stroke:#000000;stroke-opacity:1" class="area" title="INVERTER A04.1" inkscape:label="B-A04.1"></path>
  <path id="INVERTER_A03.2" d="m 263.96168,83.871201 -21.87891,0.138671 0.79102,28.548828 37.91016,-0.48828 -0.5293,-27.601563 -16.29102,-0.5 z" style="fill:#000000;fill-opacity:0.30000001;stroke:#000000;stroke-opacity:1" class="area" title="INVERTER A03.2" inkscape:label="B-A03.2"></path>
  <path id="INVERTER_A03.1" d="m 249.82031,55.929688 -32.03125,0.25 0.53125,26.849609 h 23.23047 l 0.008,0.291015 21.87891,-0.138671 -0.26758,-9.591797 h -12.53906 z" style="stroke:#000000;stroke-opacity:1;fill:#000000;fill-opacity:0.30000001" class="area" title="INVERTER A03.1" inkscape:label="B-A03.1"></path>
  <path id="INVERTER_A06.2" d="m 323.10119,117.4148 h -1.59375 l 0.26953,27.5586 41.65039,-0.73828 -0.26953,-26.85156 -40.05078,0.25 z" style="fill:#000000;fill-opacity:0.30000001;stroke:#000000;stroke-opacity:1" class="area" title="INVERTER A06.2" inkscape:label="B-A06.2"></path>
  <path id="INVERTER_A06.1" d="m 280.77882,85.779297 0.25976,31.330083 34.80665,-0.21876 h -4.7461 4.7461 l 4.97265,-0.0312 v 0.0312 h 1.59375 l -0.52344,-17.691401 h -8.27929 l -0.25977,-13.419922 z" style="stroke:#000000;stroke-opacity:1;fill:#000000;fill-opacity:0.30000001" class="area" title="INVERTER A06.1" inkscape:label="B-A06.1"></path>
  <path d="m 364.36,136 h 19.22 v 12.93 l 13.35,0.25 v 5.22 h 4.81 v 9.45 h 14.68 l 0.27,13.67 -28.84,0.25 -0.26,-14.67 h -23.23 z" fill-opacity="0.301961" fill="#000000" stroke-opacity="1" stroke="#000000" stroke-width="1.2" id="INVERTER_B02.1" class="area" title="INVERTER B02.1" inkscape:label="B-B02.1"></path>
  <path id="INVERTER_A15.2" d="M 541.64453 272.11133 L 515.60352 271.95312 L 516 300.08984 L 542.16992 300.08984 L 541.64453 272.11133 z " style="fill:#000000;fill-opacity:0.30000001;stroke:#000000;stroke-opacity:1" class="area" title="INVERTER A15.2" inkscape:label="B-A15.2"></path>
  <path id="INVERTER_A15.1" d="m 541.09961,242.11894 -25.90039,0.25 0.4043,28.55273 26.04101,0.15821 z" style="stroke:#000000;stroke-opacity:1;fill:#000000;fill-opacity:0.30000001" class="area" title="INVERTER A15.1" inkscape:label="B-A15.1"></path>
  <path id="INVERTER_A16.2" d="m 566.92226,292.2832 v 6.08399 l 0.83008,-0.0176 v 7.21094 L 645.98085,316 l 0.25977,-14.41992 z" style="stroke:#000000;stroke-opacity:1;fill:#000000;fill-opacity:0.30000001" class="area" title="INVERTER A16.2" inkscape:label="B-A16.2"></path>
  <path id="INVERTER_A16.1" d="m 564.43476,242.91016 -22.68945,0.24023 1.33008,55.68945 23.20117,-0.47265 v -6.08399 l -1.30078,-0.15234 z" style="fill:#000000;fill-opacity:0.30000001;stroke:#000000;stroke-opacity:1" class="area" title="INVERTER A16.1" inkscape:label="B-A16.1"></path>
  <path id="INVERTER_A12.1" d="m 450.27422,199.26953 -37.43945,0.13086 v 13.91992 l 13.08008,0.75 -0.25977,8.94922 24.52149,-0.56055 z" style="stroke:#000000;stroke-opacity:1;fill:#000000;fill-opacity:0.30000001" class="area" title="INVERTER A12.1" inkscape:label="B-A12.1"></path>
  <path id="INVERTER_A12.2" d="M 450.91992 199.26953 L 450.82227 222.45898 L 459.14062 222.26953 L 459.14062 227.74023 L 486.36914 227.24023 L 485.30078 199.15039 L 450.91992 199.26953 z " style="fill:#000000;fill-opacity:0.30000001;stroke:#000000;stroke-opacity:1" class="area" title="INVERTER A12.2" inkscape:label="B-A12.2"></path>
  <path id="INVERTER_A13.2" d="m 535.06055,209.28906 -42.61328,-0.21484 0.33203,17.68555 36.30078,-0.5 v 12.17968 h 6.94922 z" style="stroke:#000000;stroke-opacity:1;fill:#000000;fill-opacity:0.30000001" class="area" title="INVERTER A13.2" inkscape:label="B-A13.2"></path>
  <path id="INVERTER_A13.1" d="M 534.16016 180.25 L 491.9707 181.75 L 492.44727 207.07422 L 535.06055 207.28906 L 534.16016 180.25 z " style="fill:#000000;fill-opacity:0.30000001;stroke:#000000;stroke-opacity:1" class="area" title="INVERTER A13.1" inkscape:label="B-A13.1"></path>
  <path id="INVERTER_A14.2" d="m 581.27344,209.34375 -44.58985,0.22266 0.96094,28.87304 44.04883,1 z" style="stroke:#000000;stroke-opacity:1;fill:#000000;fill-opacity:0.30000001" class="area" title="INVERTER A14.2" inkscape:label="B-A14.2"></path>
  <path id="INVERTER_A14.1" d="M 535.77344 180.25 L 536.68359 207.56641 L 581.27344 207.34375 L 580.89453 180.25 L 535.77344 180.25 z " style="fill:#000000;fill-opacity:0.30000001;stroke:#000000;stroke-opacity:1" class="area" title="INVERTER A14.1" inkscape:label="B-A14.1"></path>
  <path id="INVERTER_A10.2" d="M 538.04297 153.05859 L 503.69336 152.92969 L 503.7207 153.65039 L 490.91016 153.90039 L 490.91016 168.82031 L 503.7207 168.82031 L 503.7207 176.2793 L 538.69922 176.2793 L 538.04297 153.05859 z " style="stroke:#000000;stroke-opacity:1;fill:#000000;fill-opacity:0.30000001" class="area" title="INVERTER A10.2" inkscape:label="B-A10.2"></path>
  <path id="INVERTER_A10.1" d="m 510.40039,116.59961 0.25977,14.16992 h -7.74024 l 0.77344,20.16016 34.34961,0.1289 -0.95313,-33.71875 z" style="fill:#000000;fill-opacity:0.30000001;stroke:#000000;stroke-opacity:1" class="area" title="INVERTER A10.1" inkscape:label="B-A10.1"></path>
  <path id="INVERTER_A11.1" d="m 570.63366,178.2793 v -28.76563 l -29.5293,0.66602 0.8086,28.09961 z" style="fill:#000000;fill-opacity:0.30000001;stroke:#000000;stroke-opacity:1" class="area" title="INVERTER A11.1" inkscape:label="B-A11.1"></path>
  <path id="INVERTER_A11.2" d="m 573.40039,120.84961 1.33008,28.58984 -3.31055,0.0742 v 28.76563 h 23.07031 l -0.52929,-56.93946 z" style="stroke:#000000;stroke-opacity:1;fill:#000000;fill-opacity:0.30000001" class="area" title="INVERTER A11.2" inkscape:label="B-A11.2"></path>
  <path id="INVERTER_A09.2" d="m 572.60816,117.37315 -34.54492,0.1875 2.35156,31.3086 32.83985,-0.74024 z" style="fill:#000000;fill-opacity:0.30000001;stroke:#000000;stroke-opacity:1" class="area" title="INVERTER A09.2" inkscape:label="B-A09.2"></path>
  <path id="INVERTER_A09.1" d="M 563.39062 83.289062 L 535.08984 84.289062 L 537.53906 116.87109 L 572.08398 116.68359 L 571.92969 109.40039 L 563.39062 110.14062 L 563.39062 83.289062 z " style="fill:#000000;fill-opacity:0.30000001;stroke:#000000;stroke-opacity:1" class="area" title="INVERTER A09.1" inkscape:label="B-A09.1"></path>
  <path id="INVERTER_A08.2" d="m 534.5625,68.503906 v 14.289063 l 55.37305,-1.71875 V 66.154297 Z" style="fill:#000000;fill-opacity:0.30000001;stroke:#000000;stroke-opacity:1" class="area" title="INVERTER A08.2" inkscape:label="B-A08.2"></path>
  <path id="INVERTER_A08.1" d="m 502.22413,53.224609 v 29.589844 l 6.94141,-0.5 V 111.1543 l 24.82812,0.25 -1.06836,-28.589847 0.68555,-0.02148 V 68.503906 l -9.22656,0.390625 -0.81055,-15.669922 z" style="stroke:#000000;stroke-opacity:1;fill:#000000;fill-opacity:0.30000001" class="area" title="INVERTER A08.1" inkscape:label="B-A08.1"></path>
  <path id="INVERTER_A07.2" d="m 574.766,42.939667 -36.07422,-0.128906 v 9.517578 l -14.68946,-0.25 0.81055,15.669922 50.18945,-2.238282 z" style="fill:#000000;fill-opacity:0.30000001;stroke:#000000;stroke-opacity:1" class="area" title="INVERTER A07.2" inkscape:label="B-A07.2"></path>
  <path id="INVERTER_A07.1" d="m 574.46131,13.349716 -35.76953,0.75 v 28.021485 l 36.07422,0.128906 z" style="stroke:#000000;stroke-opacity:1;fill:#000000;fill-opacity:0.30000001" class="area" title="INVERTER A07.1" inkscape:label="B-A07.1"></path>
  <path id="INVERTER_A17.2" d="M 685.26562,33.712891 H 643.9375 l 0.75195,26.716797 41.11133,-0.25 z" style="fill:#000000;fill-opacity:0.30000001;stroke:#000000;stroke-opacity:1" class="area" title="INVERTER A17.2" inkscape:label="B-A17.2"></path>
  <path id="INVERTER_A17.1" d="M 671.65039 1 L 643.08008 1.25 L 643.9375 31.712891 L 685.26562 31.712891 L 684.73047 5.2304688 L 671.65039 5.4804688 L 671.65039 1 z " style="fill:#000000;fill-opacity:0.30000001;stroke:#000000;stroke-opacity:1" class="area" title="INVERTER A17.1" inkscape:label="B-A17.1"></path>
  <path id="INVERTER_A18.2" d="M 761.08984 114.06445 L 727.30469 114.20312 L 728.25 142.2207 L 760.01953 142.46094 L 759.49023 134.75977 L 770.16992 134.75977 L 770.42969 118.09961 L 761.08984 118.09961 L 761.08984 114.06445 z " style="stroke:#000000;stroke-opacity:1;fill:#000000;fill-opacity:0.30000001" class="area" title="INVERTER A18.2" inkscape:label="B-A18.2"></path>
  <path id="INVERTER_A18.1" d="m 726.10938,76.820312 1.19531,35.382808 33.78515,-0.13867 v -8.39453 h -6.93945 l 0.5293,-12.929686 -7.74024,-0.25 V 76.820312 Z" style="fill:#000000;fill-opacity:0.30000001;stroke:#000000;stroke-opacity:1" class="area" title="INVERTER A18.1" inkscape:label="B-A18.1"></path>
  <path id="INVERTER_A19.1" d="m 777.35352,161.87305 h -48.8379 l 0.26368,17.64648 26.4414,-0.5 -0.27148,9.95117 44.05078,-0.25 v -9.70117 l -5.60938,0.5 -0.53124,-17.16015 -15.49024,-0.24024 z" style="stroke:#000000;stroke-opacity:1;fill:#000000;fill-opacity:0.30000001" class="area" title="INVERTER A19.1" inkscape:label="B-A19.2"></path>
  <path style="fill:#000000;fill-opacity:0.3;stroke:#000000" d="m 728.31879,143.3671 v 17.05094 h 49.41293 l -3.1318,-25.05444 -13.57116,0.69595 0.69595,8.00351 z" id="B-A19.1" class="area" title="B-A19.1" inkscape:label="B-A19.1"></path>
</svg>
