<!--?xml version="1.0" encoding="UTF-8" standalone="no"?-->
<svg version="1.2" width="100%" height="100%" viewBox="0 0 800 317" stroke-linecap="round" stroke-linejoin="round" id="svg21" sodipodi:docname="bannerton_lvl_1.svg" inkscape:version="1.3.2 (091e20e, 2023-11-25, custom)" xml:space="preserve" xmlns:inkscape="http://www.inkscape.org/namespaces/inkscape" xmlns:sodipodi="http://sodipodi.sourceforge.net/DTD/sodipodi-0.dtd" xmlns="http://www.w3.org/2000/svg" xmlns:svg="http://www.w3.org/2000/svg"><defs id="defs21"></defs><sodipodi:namedview id="namedview21" pagecolor="#ffffff" bordercolor="#000000" borderopacity="0.25" inkscape:showpageshadow="2" inkscape:pageopacity="0.0" inkscape:pagecheckerboard="0" inkscape:deskcolor="#d1d1d1" inkscape:zoom="1.895" inkscape:cx="400" inkscape:cy="158.5752" inkscape:window-width="1920" inkscape:window-height="1009" inkscape:window-x="1912" inkscape:window-y="-8" inkscape:window-maximized="1" inkscape:current-layer="svg21"></sodipodi:namedview><path d="m 37.84,86.03 0.54,40.03 -9.61,-0.25 -0.81,-11.69 H 10.08 v -3.48 L 1.8,111.14 1,92.24 17.02,91.75 v -5.22 h 16.02 z" fill-opacity="0.301961" fill="#000000" stroke-opacity="1" stroke="#000000" stroke-width="1.2" id="B-B01" inkscape:label="B-B01" class="area active" title="B-B01"></path><path d="m 37.84,86.03 45.39,-0.5 0.8,57.68 -22.69,-0.25 v -4.97 l -4.01,0.25 -0.8,-8.95 H 38.38 Z" fill-opacity="0.301961" fill="#000000" stroke-opacity="1" stroke="#000000" stroke-width="1.2" id="B-A01" inkscape:label="B-A01" class="area" title="B-A01"></path><path d="m 86.17,128.54 52.06,-1.24 1.07,42.76 h 20.02 l 0.53,16.66 h -17.08 v -4.48 l -7.48,0.5 -0.53,-11.93 H 114.2 l -1.07,-3.98 -6.94,-0.25 v -8.95 l -19.76,-0.5 z" fill-opacity="0.301961" fill="#000000" stroke-opacity="1" stroke="#000000" stroke-width="1.2" id="B-A02" inkscape:label="B-A02" class="area" title="B-A02"></path><path d="m 165.73,117.35 32.03,-0.99 0.27,15.41 46.45,-0.74 0.54,26.85 -30.17,0.74 v -4.47 l -12.55,0.5 -0.53,-9.2 h -35.78 z" fill-opacity="0.301961" fill="#000000" stroke-opacity="1" stroke="#000000" stroke-width="1.2" id="B-A05" inkscape:label="B-A05" class="area" title="B-A05"></path><path d="m 242.62,129.04 -42.45,0.99 0.26,-15.41 -13.08,-0.25 v -8.7 l 10.41,-0.25 v -3.23 h 14.42 V 88.02 l 29.64,-0.25 z" fill-opacity="0.301961" fill="#000000" stroke-opacity="1" stroke="#000000" stroke-width="1.2" id="B-A04" inkscape:label="B-A04" class="area" title="B-A04"></path><path d="m 279.73,85.78 0.53,27.6 -37.91,0.49 -0.8,-28.84 h -23.23 l -0.53,-26.85 32.03,-0.25 0.81,17.66 h 12.54 l 0.27,9.69 z" fill-opacity="0.301961" fill="#000000" stroke-opacity="1" stroke="#000000" stroke-width="1.2" id="B-A03" inkscape:label="B-A03" class="area" title="B-A03"></path><path d="m 279.73,85.78 h 32.57 l 0.26,13.42 h 8.28 l 0.53,17.91 40.05,-0.25 0.27,26.85 -41.65,0.74 -0.27,-27.59 -39.78,0.25 z" fill-opacity="0.301961" fill="#000000" stroke-opacity="1" stroke="#000000" stroke-width="1.2" id="B-A06" inkscape:label="B-A06" class="area" title="B-A06"></path><path d="m 364.36,136 h 19.22 v 12.93 l 13.35,0.25 v 5.22 h 4.81 v 9.45 h 14.68 l 0.27,13.67 -28.84,0.25 -0.26,-14.67 h -23.23 z" fill-opacity="0.301961" fill="#000000" stroke-opacity="1" stroke="#000000" stroke-width="1.2" id="B-B02" inkscape:label="B-B02" class="area" title="B-B02"></path><path d="m 541.1,243.15 1.07,56.94 H 516 l -0.8,-56.69 z" fill-opacity="0.301961" fill="#000000" stroke-opacity="1" stroke="#000000" stroke-width="1.2" id="B-A15" inkscape:label="B-A15" class="area" title="B-A15"></path><path d="m 541.1,243.15 22.69,-0.24 0.54,49.22 80.62,9.45 -0.26,14.42 -78.23,-10.44 v -7.21 l -24.03,0.49 z" fill-opacity="0.301961" fill="#000000" stroke-opacity="1" stroke="#000000" stroke-width="1.2" id="B-A16" inkscape:label="B-A16" class="area" title="B-A16"></path><path d="m 413.48,199.4 71.82,-0.25 1.07,28.09 -27.23,0.5 v -5.47 l -32.84,0.75 0.26,-8.95 -13.08,-0.75 z" fill-opacity="0.301961" fill="#000000" stroke-opacity="1" stroke="#000000" stroke-width="1.2" id="B-A12" inkscape:label="B-A12" class="area" title="B-A12"></path><path d="m 534.16,180.25 1.87,56.19 h -6.95 v -12.18 l -36.3,0.5 -0.81,-43.01 z" fill-opacity="0.301961" fill="#000000" stroke-opacity="1" stroke="#000000" stroke-width="1.2" id="B-A13" inkscape:label="B-A13" class="area" title="B-A13"></path><path d="m 534.16,180.25 h 45.12 l 0.8,57.19 -44.05,-1 z" fill-opacity="0.301961" fill="#000000" stroke-opacity="1" stroke="#000000" stroke-width="1.2" id="B-A14" inkscape:label="B-A14" class="area" title="B-A14"></path><path d="m 538.7,176.28 h -34.98 v -7.46 H 490.91 V 153.9 l 12.81,-0.25 -0.8,-20.88 h 7.74 l -0.26,-14.17 26.69,0.74 z" fill-opacity="0.301961" fill="#000000" stroke-opacity="1" stroke="#000000" stroke-width="1.2" id="B-A10" inkscape:label="B-A10" class="area" title="B-A10"></path><path d="m 537.89,148.18 32.84,-0.74 -1.33,-28.59 20.56,0.49 0.53,56.94 H 538.7 Z" fill-opacity="0.301961" fill="#000000" stroke-opacity="1" stroke="#000000" stroke-width="1.2" id="B-A11" inkscape:label="B-A11" class="area" title="B-A11"></path><path d="m 537.89,148.18 -4.8,-63.89 28.3,-1 v 26.85 l 8.54,-0.74 0.8,38.04 z" fill-opacity="0.301961" fill="#000000" stroke-opacity="1" stroke="#000000" stroke-width="1.2" id="B-A09" inkscape:label="B-A09" class="area" title="B-A09"></path><path d="m 533.09,84.29 1.07,28.59 -24.83,-0.25 V 83.79 l -6.94,0.5 V 54.7 h 21.35 l 0.81,15.67 64.6,-2.74 v 14.92 z" fill-opacity="0.301961" fill="#000000" stroke-opacity="1" stroke="#000000" stroke-width="1.2" id="B-A08" inkscape:label="B-A08" class="area" title="B-A08"></path><path d="m 524.55,70.37 -0.81,-15.67 14.69,0.25 V 17.41 l 35.77,-0.75 0.54,51.47 z" fill-opacity="0.301961" fill="#000000" stroke-opacity="1" stroke="#000000" stroke-width="1.2" id="B-A07" inkscape:label="B-A07" class="area" title="B-A07"></path><path d="M 643.08,1.25 671.65,1 v 4.48 l 13.08,-0.25 1.07,52.95 -41.11,0.25 z" fill-opacity="0.301961" fill="#000000" stroke-opacity="1" stroke="#000000" stroke-width="1.2" id="B-A17" inkscape:label="B-A17" class="area" title="B-A17"></path><path d="m 759.49,134.76 0.53,7.7 -31.77,-0.24 -2.14,-63.4 h 20.83 v 13.67 l 7.74,0.25 -0.53,12.93 h 6.94 v 12.43 h 9.34 l -0.26,16.66 z" fill-opacity="0.301961" fill="#000000" stroke-opacity="1" stroke="#000000" stroke-width="1.2" id="B-A18" inkscape:label="B-A18" class="area" title="B-A18"></path><path d="m 759.49,134.76 16.28,0.49 1.6,24.87 15.49,0.24 0.53,17.16 5.61,-0.5 v 9.7 l -44.05,0.25 0.27,-9.95 -26.44,0.5 -0.53,-35.3 31.77,0.24 z" fill-opacity="0.301961" fill="#000000" stroke-opacity="1" stroke="#000000" stroke-width="1.2" id="B-A19" inkscape:label="B-A19" class="area" title="B-A19"></path></svg>
