<!--?xml version="1.0" encoding="UTF-8" standalone="no"?-->
<!--?xml version="1.0" encoding="UTF-8" standalone="no"?-->

<svg version="1.2" width="100%" height="100%" viewBox="0 0 800 317" stroke-linecap="round" stroke-linejoin="round" id="svg21" sodipodi:docname="bannerton_lvl_1 - copia.svg" inkscape:version="1.3.2 (091e20e, 2023-11-25, custom)" xml:space="preserve" xmlns:inkscape="http://www.inkscape.org/namespaces/inkscape" xmlns:sodipodi="http://sodipodi.sourceforge.net/DTD/sodipodi-0.dtd" xmlns="http://www.w3.org/2000/svg" xmlns:svg="http://www.w3.org/2000/svg"><defs id="defs21"></defs><sodipodi:namedview id="namedview21" pagecolor="#ffffff" bordercolor="#000000" borderopacity="0.25" inkscape:showpageshadow="2" inkscape:pageopacity="0.0" inkscape:pagecheckerboard="0" inkscape:deskcolor="#d1d1d1" inkscape:zoom="2.0436997" inkscape:cx="150.46242" inkscape:cy="175.90647" inkscape:window-width="1920" inkscape:window-height="1009" inkscape:window-x="-8" inkscape:window-y="-8" inkscape:window-maximized="1" inkscape:current-layer="svg21"></sodipodi:namedview><path d="m 37.84,86.03 0.54,40.03 -9.61,-0.25 -0.81,-11.69 H 10.08 v -3.48 L 1.8,111.14 1,92.24 17.02,91.75 v -5.22 h 16.02 z" fill-opacity="0.301961" fill="#000000" stroke-opacity="1" stroke="#000000" stroke-width="1.2" id="B-B01.1" inkscape:label="B-B01" class="area" title="B-B01.1"></path><path id="B-A01.2" class="area" inkscape:label="B-A01" d="M 83.568359 109.96484 L 38.138672 109.96484 L 38.380859 129.28906 L 56.529297 129.28906 L 57.330078 138.24023 L 61.339844 137.99023 L 61.339844 142.96094 L 84.029297 143.21094 L 83.568359 109.96484 z " style="stroke:#000000;stroke-opacity:1;fill:#000000;fill-opacity:0.30000001" title="B-A01.2"></path><path id="B-A01.1" class="area" inkscape:label="B-A01" d="m 83.230469,84.640051 -45.390625,0.5 0.298828,23.935539 h 45.429687 z" style="fill:#000000;stroke:#000000;stroke-opacity:1;fill-opacity:0.30000001" title="B-A01.1"></path><path id="B-A02.2" class="area" inkscape:label="B-A02" d="M 138.99414 157.81055 L 106.18945 158.05664 L 106.18945 166.58008 L 113.13086 166.83008 L 114.19922 170.81055 L 134.75977 170.81055 L 135.28906 182.74023 L 142.76953 182.24023 L 142.76953 186.7207 L 159.84961 186.7207 L 159.32031 170.06055 L 139.30078 170.06055 L 138.99414 157.81055 z " style="stroke:#000000;stroke-opacity:1;fill:#000000;fill-opacity:0.30000001" title="B-A02.2"></path><path id="B-A02.1" class="area" inkscape:label="B-A02" d="m 138.23047,126.41153 -52.060548,1.23828 0.259766,28.5918 19.759762,0.5 v 0.42578 l 32.80469,-0.24609 z" style="stroke:#000000;stroke-opacity:1;fill:#000000;fill-opacity:0.30000001" title="B-A02.1"></path><path id="B-A05.2" class="area" inkscape:label="B-A05" d="m 202.67525,131.70312 v 20.44336 l 0.14453,2.50391 12.54883,-0.5 v 4.46875 l 30.16992,-0.73828 -0.53906,-26.85156 z" style="stroke:#000000;stroke-opacity:1;fill:#000000;fill-opacity:0.30000001" title="B-A05.2"></path><path id="B-A05.1" class="area" inkscape:label="B-A05" d="m 197.01953,116.35938 -32.0293,0.99023 0.25977,28.09961 h 35.7793 l 0.008,0.12109 c 0.0704,-0.0381 0.14453,-0.0597 0.21875,-0.0644 0.0539,-0.003 0.1077,0.004 0.16016,0.0176 v -13.82032 l -4.12696,0.0664 z" style="stroke:#000000;stroke-opacity:1;fill:#000000;fill-opacity:0.30000001" title="B-A05.1"></path><path id="B-A04.2" class="area" inkscape:label="B-A04" d="M 240.04216,111.07533 H 185.1281 v 3.66406 l 13.08008,0.25 -0.25977,15.41016 42.44922,-0.99024 z" style="stroke:#000000;stroke-opacity:1;fill:#000000;fill-opacity:0.30000001" title="B-A04.2"></path><path id="B-A04.1" class="area" inkscape:label="B-A04" d="m 239.82031,87.250536 -29.64062,0.25 v 14.169914 h -14.41992 v 3.23047 l -10.41016,0.25 v 5.03516 h 54.91406 z" style="stroke:#000000;stroke-opacity:1;fill:#000000;fill-opacity:0.30000001" title="B-A04.1"></path><path id="B-A03.2" class="area" inkscape:label="B-A03" d="M 263.43555 85.158203 L 241.55469 85.158203 L 242.34961 113.86914 L 280.25977 113.38086 L 279.73047 85.779297 L 263.43945 85.279297 L 263.43555 85.158203 z " style="stroke:#000000;stroke-opacity:1;fill:#000000;fill-opacity:0.30000001" title="B-A03.2"></path><path id="B-A03.1" class="area" inkscape:label="B-A03" d="m 249.82031,57.410693 -32.03125,0.25 0.53125,26.849609 h 23.23047 l 0.004,0.128906 h 21.88086 l -0.26563,-9.568359 h -12.53906 z" style="stroke:#000000;stroke-opacity:1;fill:#000000;fill-opacity:0.30000001" title="B-A03.1"></path><path id="B-A06.2" class="area" inkscape:label="B-A06" d="m 362.90483,118.45255 -41.65039,-0.15821 0.26562,27.26563 41.65039,-0.73828 z" style="stroke:#000000;stroke-opacity:1;fill:#000000;fill-opacity:0.30000001" title="B-A06.2"></path><path id="B-A06.1" class="area" inkscape:label="B-A06" d="m 280.4707,85.408203 0.25977,31.251957 7.73828,0.0293 31.73047,-0.19922 c 0.17114,-0.11288 0.42231,-0.17345 0.75,-0.13671 0.1108,0.013 0.22065,0.006 0.33203,0.004 0.25703,-0.005 0.51524,-0.013 0.77148,-0.0352 0.0151,-0.001 0.0299,-0.004 0.0449,-0.006 l -0.51758,-17.488285 h -8.2793 l -0.25976,-13.419922 z" style="stroke:#000000;stroke-opacity:1;fill:#000000;fill-opacity:0.30000001" title="B-A06.1"></path><path d="m 364.36,136 h 19.22 v 12.93 l 13.35,0.25 v 5.22 h 4.81 v 9.45 h 14.68 l 0.27,13.67 -28.84,0.25 -0.26,-14.67 h -23.23 z" fill-opacity="0.301961" fill="#000000" stroke-opacity="1" stroke="#000000" stroke-width="1.2" id="B-B02.1" inkscape:label="B-B02" class="area" title="B-B02.1"></path><path id="B-A15.2" class="area" inkscape:label="B-A15" d="M 541.6582 272.875 L 515.61523 272.875 L 516 300.08984 L 542.16992 300.08984 L 541.6582 272.875 z " style="stroke:#000000;stroke-opacity:1;fill:#000000;fill-opacity:0.30000001" title="B-A15.2"></path><path id="B-A15.1" class="area" inkscape:label="B-A15" d="m 541.09961,242.63139 -25.90039,0.25 0.41601,29.47461 h 26.04297 z" style="stroke:#000000;stroke-opacity:1;fill:#000000;fill-opacity:0.30000001" title="B-A15.1"></path><path id="B-A16.2" class="area" inkscape:label="B-A16" d="m 568.72852,292.41211 c -10e-5,0.0221 1.1e-4,0.0443 0,0.0664 -0.002,0.3616 -0.006,0.72249 -0.0156,1.08398 -0.0122,0.40801 -0.0299,0.81615 -0.0684,1.22266 -0.0341,0.34737 -0.0858,0.69252 -0.10742,1.04101 -0.033,0.31313 -0.085,0.6258 -0.082,0.94141 -0.01,0.46553 -0.0215,0.93022 -0.0586,1.39453 -0.005,0.063 -0.0118,0.12636 -0.0176,0.18945 l 0.082,-0.002 v 7.21094 L 646.68945,316 l 0.25977,-14.41992 z" style="stroke:#000000;stroke-opacity:1;fill:#000000;fill-opacity:0.30000001" title="B-A16.2"></path><path id="B-A16.1" class="area" inkscape:label="B-A16" d="m 564.67773,243.28125 -22.68945,0.24023 1.33008,55.68946 22.13672,-0.45117 v -0.90821 -0.90234 -0.93164 -1.04102 -1.0957 -0.95117 -0.40039 l -0.23633,-0.0273 z" style="stroke:#000000;stroke-opacity:1;fill:#000000;fill-opacity:0.30000001" title="B-A16.1"></path><path id="B-A12.1" class="area" inkscape:label="B-A12" d="m 450.38614,199.26953 -37.79492,0.13086 v 13.91992 l 13.08008,0.75 -0.25977,8.94922 24.78906,-0.56641 z" style="stroke:#000000;stroke-opacity:1;fill:#000000;fill-opacity:0.30000001" title="B-A12.1"></path><path id="B-A12.2" class="area" inkscape:label="B-A12" d="M 451.27539 199.26953 L 451.08984 222.45312 L 459.14062 222.26953 L 459.14062 227.74023 L 486.36914 227.24023 L 485.30078 199.15039 L 451.27539 199.26953 z " style="stroke:#000000;stroke-opacity:1;fill:#000000;fill-opacity:0.30000001" title="B-A12.2"></path><path id="B-A13.2" class="area" inkscape:label="B-A13" d="m 535.09766,209.71067 h -42.625 l 0.30664,16.3086 36.30078,-0.5 v 12.17968 h 6.94922 z" style="stroke:#000000;stroke-opacity:1;fill:#000000;fill-opacity:0.30000001" title="B-A13.2"></path><path id="B-A13.1" class="area" inkscape:label="B-A13" d="M 534.16016 180.25 L 491.9707 181.75 L 492.47266 208.45117 L 535.09766 208.45117 L 534.16016 180.25 z " style="stroke:#000000;stroke-opacity:1;fill:#000000;fill-opacity:0.30000001" title="B-A13.1"></path><path id="B-A14.2" class="area" inkscape:label="B-A14" d="m 580.92356,208.97044 h -44.58984 l 0.95508,28.72851 44.05078,1 z" style="stroke:#000000;stroke-opacity:1;fill:#000000;fill-opacity:0.30000001" title="B-A14.2"></path><path id="B-A14.1" class="area" inkscape:label="B-A14" d="m 535.41966,180.62025 0.91406,27.46094 h 44.58984 l -0.38476,-27.46094 z" style="stroke:#000000;stroke-opacity:1;fill:#000000;fill-opacity:0.30000001" title="B-A14.1"></path><path id="B-A10.2" class="area" inkscape:label="B-A10" d="m 538.02734,153.06197 h -34.34961 l 0.043,1.10742 -12.81054,0.25 v 14.91992 h 12.81054 v 7.45899 h 34.97852 z" style="stroke:#000000;stroke-opacity:1;fill:#000000;fill-opacity:0.30000001" title="B-A10.2"></path><path id="B-A10.1" class="area" inkscape:label="B-A10" d="m 510.03014,118.59961 0.25977,14.16992 h -7.74024 l 0.75781,19.77344 h 34.34961 l -0.9375,-33.20313 z" style="stroke:#000000;stroke-opacity:1;fill:#000000;fill-opacity:0.30000001" title="B-A10.2"></path><path id="B-A11.1" class="area" inkscape:label="B-A11" d="M 569.81641 176.2793 L 569.81641 147.48438 L 539 148.17969 L 539.81055 176.2793 L 569.81641 176.2793 z " style="stroke:#000000;stroke-opacity:1;fill:#000000;fill-opacity:0.30000001" title="B-A11.1"></path><path id="B-A11.2" class="area" inkscape:label="B-A11" d="m 571.40097,118.84961 1.32812,28.58984 -2.02343,0.0449 v 28.79492 h 21.78515 l -0.53125,-56.93946 z" style="stroke:#000000;stroke-opacity:1;fill:#000000;fill-opacity:0.30000001" title="B-A11.2"></path><path id="B-A09.2" class="area" inkscape:label="B-A09" d="M 570.08203 116.62891 L 535.51953 116.62891 L 537.89062 148.17969 L 570.73047 147.43945 L 570.08203 116.62891 z " style="stroke:#000000;stroke-opacity:1;fill:#000000;fill-opacity:0.30000001" title="B-A09.2"></path><path id="B-A09.1" class="area" inkscape:label="B-A09" d="m 561.39062,82.918811 -28.30078,1 2.42969,32.339849 h 34.5625 l -0.15234,-7.22852 -8.53907,0.74023 z" style="stroke:#000000;stroke-opacity:1;fill:#000000;fill-opacity:0.30000001" title="B-A09.1"></path><path id="B-A08.2" class="area" inkscape:label="B-A08" d="m 533.60658,69.228248 0.14258,14.289062 55.03125,-1.707031 V 66.890357 Z" style="stroke:#000000;stroke-opacity:1;fill:#000000;fill-opacity:0.30000001" title="B-A08.2"></path><path id="B-A08.1" class="area" inkscape:label="B-A08" d="M 501.65039 54.699219 L 501.65039 84.289062 L 508.58984 83.789062 L 508.58984 112.63086 L 533.41992 112.88086 L 532.34961 84.289062 L 533.37891 84.257812 L 533.23633 69.96875 L 523.80859 70.369141 L 523 54.699219 L 501.65039 54.699219 z " style="stroke:#000000;stroke-opacity:1;fill:#000000;fill-opacity:0.30000001" title="B-A08.1"></path><path id="B-A07.2" class="area" inkscape:label="B-A07" d="m 574.90345,47.39231 h -36.10351 v 6.447266 l -14.68946,-0.25 0.81055,15.669922 50.18945,-2.240234 z" style="stroke:#000000;stroke-opacity:1;fill:#000000;fill-opacity:0.30000001" title="B-A07.2"></path><path id="B-A07.1" class="area" inkscape:label="B-A07" d="m 574.19922,15.178309 -35.76953,0.75 v 31.09375 h 36.10351 z" style="stroke:#000000;stroke-opacity:1;fill:#000000;fill-opacity:0.30000001" title="B-A07.1"></path><path id="B-A17.2" class="area" inkscape:label="B-A17" d="m 685.26758,33.101295 h -41.32617 l 0.74804,26.587891 41.11133,-0.25 z" style="stroke:#000000;stroke-opacity:1;fill:#000000;fill-opacity:0.30000001" title="B-A17.2"></path><path id="B-A17.1" class="area" inkscape:label="B-A17" d="m 671.65039,1.3702512 -28.57031,0.25 0.86133,30.5917968 h 41.32617 l -0.53711,-26.611328 -13.08008,0.25 z" style="stroke:#000000;stroke-opacity:1;fill:#000000;fill-opacity:0.30000001" title="B-A17.1"></path><path id="B-A18.2" class="area" inkscape:label="B-A18" d="m 761.08984,111.0748 h -33.85351 l 1.01367,30.03515 31.76953,0.24024 -0.5293,-7.70117 h 10.67969 l 0.25977,-16.66016 h -9.33985 z" style="stroke:#000000;stroke-opacity:1;fill:#000000;fill-opacity:0.30000001" title="B-A18.2"></path><path id="B-A18.1" class="area" inkscape:label="B-A18" d="m 726.10938,76.820312 1.12695,33.365238 h 33.85351 v -6.51563 h -6.93945 l 0.5293,-12.929686 -7.74024,-0.25 V 76.820312 Z" style="stroke:#000000;stroke-opacity:1;fill:#000000;fill-opacity:0.30000001" title="B-A18.1"></path><path id="B-A19.2" class="area" inkscape:label="B-A19" d="M 777.31055 159.20898 L 728.50391 159.20898 L 728.7793 177.51953 L 755.2207 177.01953 L 754.94922 186.9707 L 799 186.7207 L 799 177.01953 L 793.39062 177.51953 L 792.85938 160.35938 L 777.36914 160.11914 L 777.31055 159.20898 z " style="stroke:#000000;stroke-opacity:1;fill:#000000;fill-opacity:0.30000001" title="B-A19.2"></path><path id="B-A19.1" class="area active" inkscape:label="B-A19" d="m 759.86048,134.38952 0.5293,7.70117 -31.76953,-0.24024 0.25391,16.98828 h 48.80664 l -1.54102,-23.95898 z" style="stroke:#000000;stroke-opacity:1;fill:#000000;fill-opacity:0.30000001" title="B-A19.1"></path></svg>
